<svg width="170" height="96" viewBox="0 0 170 96" fill="none" xmlns="http://www.w3.org/2000/svg">
<rect y="8" width="165" height="88" rx="10" fill="#61707D"/>
<rect x="15" y="34" width="23" height="17" rx="5" fill="#CFC7C7"/>
<rect x="117" y="69" width="30" height="14" rx="3" fill="black"/>
<path d="M22.7871 59.7871C22.7871 62.0488 23.6133 63.1797 25.2656 63.1797C26.875 63.1797 27.6797 62.0488 27.6797 59.7871C27.6797 57.5566 26.875 56.4414 25.2656 56.4414C23.6133 56.4414 22.7871 57.5566 22.7871 59.7871ZM21.6445 59.8223C21.6445 56.9824 22.8516 55.5625 25.2656 55.5625C27.6367 55.5625 28.8223 56.9824 28.8223 59.8223C28.8223 62.6465 27.6367 64.0586 25.2656 64.0586C22.8516 64.0586 21.6445 62.6465 21.6445 59.8223ZM31.2598 59.7871C31.2598 62.0488 32.0859 63.1797 33.7383 63.1797C35.3477 63.1797 36.1523 62.0488 36.1523 59.7871C36.1523 57.5566 35.3477 56.4414 33.7383 56.4414C32.0859 56.4414 31.2598 57.5566 31.2598 59.7871ZM30.1172 59.8223C30.1172 56.9824 31.3242 55.5625 33.7383 55.5625C36.1094 55.5625 37.2949 56.9824 37.2949 59.8223C37.2949 62.6465 36.1094 64.0586 33.7383 64.0586C31.3242 64.0586 30.1172 62.6465 30.1172 59.8223ZM39.7324 59.7871C39.7324 62.0488 40.5586 63.1797 42.2109 63.1797C43.8203 63.1797 44.625 62.0488 44.625 59.7871C44.625 57.5566 43.8203 56.4414 42.2109 56.4414C40.5586 56.4414 39.7324 57.5566 39.7324 59.7871ZM38.5898 59.8223C38.5898 56.9824 39.7969 55.5625 42.2109 55.5625C44.582 55.5625 45.7676 56.9824 45.7676 59.8223C45.7676 62.6465 44.582 64.0586 42.2109 64.0586C39.7969 64.0586 38.5898 62.6465 38.5898 59.8223ZM51.1348 59.7871C51.1348 62.0488 51.9609 63.1797 53.6133 63.1797C55.2227 63.1797 56.0273 62.0488 56.0273 59.7871C56.0273 57.5566 55.2227 56.4414 53.6133 56.4414C51.9609 56.4414 51.1348 57.5566 51.1348 59.7871ZM49.9922 59.8223C49.9922 56.9824 51.1992 55.5625 53.6133 55.5625C55.9844 55.5625 57.1699 56.9824 57.1699 59.8223C57.1699 62.6465 55.9844 64.0586 53.6133 64.0586C51.1992 64.0586 49.9922 62.6465 49.9922 59.8223ZM59.6074 59.7871C59.6074 62.0488 60.4336 63.1797 62.0859 63.1797C63.6953 63.1797 64.5 62.0488 64.5 59.7871C64.5 57.5566 63.6953 56.4414 62.0859 56.4414C60.4336 56.4414 59.6074 57.5566 59.6074 59.7871ZM58.4648 59.8223C58.4648 56.9824 59.6719 55.5625 62.0859 55.5625C64.457 55.5625 65.6426 56.9824 65.6426 59.8223C65.6426 62.6465 64.457 64.0586 62.0859 64.0586C59.6719 64.0586 58.4648 62.6465 58.4648 59.8223ZM68.0801 59.7871C68.0801 62.0488 68.9062 63.1797 70.5586 63.1797C72.168 63.1797 72.9727 62.0488 72.9727 59.7871C72.9727 57.5566 72.168 56.4414 70.5586 56.4414C68.9062 56.4414 68.0801 57.5566 68.0801 59.7871ZM66.9375 59.8223C66.9375 56.9824 68.1445 55.5625 70.5586 55.5625C72.9297 55.5625 74.1152 56.9824 74.1152 59.8223C74.1152 62.6465 72.9297 64.0586 70.5586 64.0586C68.1445 64.0586 66.9375 62.6465 66.9375 59.8223ZM76.5527 59.7871C76.5527 62.0488 77.3789 63.1797 79.0312 63.1797C80.6406 63.1797 81.4453 62.0488 81.4453 59.7871C81.4453 57.5566 80.6406 56.4414 79.0312 56.4414C77.3789 56.4414 76.5527 57.5566 76.5527 59.7871ZM75.4102 59.8223C75.4102 56.9824 76.6172 55.5625 79.0312 55.5625C81.4023 55.5625 82.5879 56.9824 82.5879 59.8223C82.5879 62.6465 81.4023 64.0586 79.0312 64.0586C76.6172 64.0586 75.4102 62.6465 75.4102 59.8223ZM87.9551 59.7871C87.9551 62.0488 88.7812 63.1797 90.4336 63.1797C92.043 63.1797 92.8477 62.0488 92.8477 59.7871C92.8477 57.5566 92.043 56.4414 90.4336 56.4414C88.7812 56.4414 87.9551 57.5566 87.9551 59.7871ZM86.8125 59.8223C86.8125 56.9824 88.0195 55.5625 90.4336 55.5625C92.8047 55.5625 93.9902 56.9824 93.9902 59.8223C93.9902 62.6465 92.8047 64.0586 90.4336 64.0586C88.0195 64.0586 86.8125 62.6465 86.8125 59.8223ZM96.4277 59.7871C96.4277 62.0488 97.2539 63.1797 98.9062 63.1797C100.516 63.1797 101.32 62.0488 101.32 59.7871C101.32 57.5566 100.516 56.4414 98.9062 56.4414C97.2539 56.4414 96.4277 57.5566 96.4277 59.7871ZM95.2852 59.8223C95.2852 56.9824 96.4922 55.5625 98.9062 55.5625C101.277 55.5625 102.463 56.9824 102.463 59.8223C102.463 62.6465 101.277 64.0586 98.9062 64.0586C96.4922 64.0586 95.2852 62.6465 95.2852 59.8223ZM104.9 59.7871C104.9 62.0488 105.727 63.1797 107.379 63.1797C108.988 63.1797 109.793 62.0488 109.793 59.7871C109.793 57.5566 108.988 56.4414 107.379 56.4414C105.727 56.4414 104.9 57.5566 104.9 59.7871ZM103.758 59.8223C103.758 56.9824 104.965 55.5625 107.379 55.5625C109.75 55.5625 110.936 56.9824 110.936 59.8223C110.936 62.6465 109.75 64.0586 107.379 64.0586C104.965 64.0586 103.758 62.6465 103.758 59.8223ZM113.373 59.7871C113.373 62.0488 114.199 63.1797 115.852 63.1797C117.461 63.1797 118.266 62.0488 118.266 59.7871C118.266 57.5566 117.461 56.4414 115.852 56.4414C114.199 56.4414 113.373 57.5566 113.373 59.7871ZM112.23 59.8223C112.23 56.9824 113.438 55.5625 115.852 55.5625C118.223 55.5625 119.408 56.9824 119.408 59.8223C119.408 62.6465 118.223 64.0586 115.852 64.0586C113.438 64.0586 112.23 62.6465 112.23 59.8223Z" fill="black"/>
<path d="M98.3242 26.707C97.6016 26.9414 96.8203 27.0586 95.9805 27.0586C93.0508 27.0586 91.5859 25.6035 91.5859 22.6934C91.5859 19.9395 93.0508 18.5625 95.9805 18.5625C96.8203 18.5625 97.6016 18.6797 98.3242 18.9141V19.8516C97.6016 19.5781 96.8594 19.4414 96.0977 19.4414C93.8125 19.4414 92.6699 20.5254 92.6699 22.6934C92.6699 25.0176 93.8125 26.1797 96.0977 26.1797C96.8594 26.1797 97.6016 26.043 98.3242 25.7695V26.707ZM100 27V20.8477H100.732L100.926 21.6328C101.465 21.1094 102.113 20.8477 102.871 20.8477V21.75C102.137 21.75 101.541 22.0098 101.084 22.5293V27H100ZM106.498 20.8477C108.248 20.8477 109.123 21.7129 109.123 23.4434C109.123 23.6895 109.105 23.9531 109.07 24.2344H104.752C104.752 25.4922 105.486 26.1211 106.955 26.1211C107.654 26.1211 108.275 26.043 108.818 25.8867V26.7656C108.275 26.9219 107.615 27 106.838 27C104.725 27 103.668 25.9512 103.668 23.8535C103.668 21.8496 104.611 20.8477 106.498 20.8477ZM104.752 23.332H108.08C108.057 22.2539 107.529 21.7148 106.498 21.7148C105.404 21.7148 104.822 22.2539 104.752 23.332ZM114.713 22.1016C114.275 21.8906 113.775 21.7852 113.213 21.7852C111.975 21.7852 111.355 22.4434 111.355 23.7598C111.355 25.3184 111.975 26.0977 113.213 26.0977C113.775 26.0977 114.275 26.0215 114.713 25.8691V22.1016ZM115.797 26.6309C115.051 26.877 114.131 27 113.037 27C111.205 27 110.289 25.9336 110.289 23.8008C110.289 21.832 111.262 20.8477 113.207 20.8477C113.738 20.8477 114.24 20.9453 114.713 21.1406V18.6211H115.797V26.6309ZM118.756 20.8477V27H117.672V20.8477H118.756ZM118.756 18.6211V19.6465H117.672V18.6211H118.756ZM120.637 19.8516H121.316L121.551 20.8477H123.215V21.7266H121.721V25.2598C121.721 25.834 121.969 26.1211 122.465 26.1211H123.215V27H122.184C121.152 27 120.637 26.4473 120.637 25.3418V19.8516ZM133.973 26.707C133.25 26.9414 132.469 27.0586 131.629 27.0586C128.699 27.0586 127.234 25.6035 127.234 22.6934C127.234 19.9395 128.699 18.5625 131.629 18.5625C132.469 18.5625 133.25 18.6797 133.973 18.9141V19.8516C133.25 19.5781 132.508 19.4414 131.746 19.4414C129.461 19.4414 128.318 20.5254 128.318 22.6934C128.318 25.0176 129.461 26.1797 131.746 26.1797C132.508 26.1797 133.25 26.043 133.973 25.7695V26.707ZM135.355 25.1426C135.355 23.8809 136.188 23.25 137.852 23.25C138.387 23.25 138.922 23.2891 139.457 23.3672V22.7871C139.457 22.0801 138.904 21.7266 137.799 21.7266C137.166 21.7266 136.518 21.8242 135.854 22.0195V21.1406C136.518 20.9453 137.166 20.8477 137.799 20.8477C139.627 20.8477 140.541 21.4844 140.541 22.7578V27H139.932L139.557 26.3906C138.943 26.7969 138.275 27 137.553 27C136.088 27 135.355 26.3809 135.355 25.1426ZM137.852 24.1289C136.91 24.1289 136.439 24.4609 136.439 25.125C136.439 25.7891 136.811 26.1211 137.553 26.1211C138.303 26.1211 138.938 25.9219 139.457 25.5234V24.2461C138.922 24.168 138.387 24.1289 137.852 24.1289ZM142.305 27V20.8477H143.037L143.23 21.6328C143.77 21.1094 144.418 20.8477 145.176 20.8477V21.75C144.441 21.75 143.846 22.0098 143.389 22.5293V27H142.305ZM150.396 22.1016C149.959 21.8906 149.459 21.7852 148.896 21.7852C147.658 21.7852 147.039 22.4434 147.039 23.7598C147.039 25.3184 147.658 26.0977 148.896 26.0977C149.459 26.0977 149.959 26.0215 150.396 25.8691V22.1016ZM151.48 26.6309C150.734 26.877 149.814 27 148.721 27C146.889 27 145.973 25.9336 145.973 23.8008C145.973 21.832 146.945 20.8477 148.891 20.8477C149.422 20.8477 149.924 20.9453 150.396 21.1406V18.6211H151.48V26.6309Z" fill="black"/>
<path d="M23.9883 67.6211V73.5859C23.9883 75.1953 23.041 76 21.1465 76V75.1211C22.3184 75.1211 22.9043 74.6094 22.9043 73.5859V67.6211H23.9883ZM26.7129 72.9004C26.7129 74.3809 27.3281 75.1211 28.5586 75.1211C29.7891 75.1211 30.4043 74.3809 30.4043 72.9004C30.4043 71.4512 29.7891 70.7266 28.5586 70.7266C27.3281 70.7266 26.7129 71.4512 26.7129 72.9004ZM25.6289 72.9238C25.6289 70.873 26.6055 69.8477 28.5586 69.8477C30.5117 69.8477 31.4883 70.873 31.4883 72.9238C31.4883 74.9707 30.5117 75.9941 28.5586 75.9941C26.6133 75.9941 25.6367 74.9707 25.6289 72.9238ZM32.9531 76V67.6211H34.0371V70.5156C34.5605 70.0703 35.1992 69.8477 35.9531 69.8477C37.4883 69.8477 38.2559 70.6113 38.2559 72.1387V76H37.1719V72.1211C37.1719 71.207 36.7168 70.75 35.8066 70.75C35.1855 70.75 34.5957 71.0098 34.0371 71.5293V76H32.9531ZM40.0195 76V69.8477H40.752L40.9453 70.6328C41.5742 70.1094 42.2656 69.8477 43.0195 69.8477C44.5547 69.8477 45.3223 70.6113 45.3223 72.1387V76H44.2383V72.1211C44.2383 71.207 43.7832 70.75 42.873 70.75C42.252 70.75 41.6621 71.0098 41.1035 71.5293V76H40.0195ZM53.1797 75.1211C55.2305 75.1211 56.2559 73.9414 56.2559 71.582C56.2559 69.5273 55.2305 68.5 53.1797 68.5H51.2168V75.1211H53.1797ZM50.1328 76V67.6211H53.1797C55.9531 67.6211 57.3398 68.9414 57.3398 71.582C57.3398 74.5273 55.9531 76 53.1797 76H50.1328ZM59.5957 72.9004C59.5957 74.3809 60.2109 75.1211 61.4414 75.1211C62.6719 75.1211 63.2871 74.3809 63.2871 72.9004C63.2871 71.4512 62.6719 70.7266 61.4414 70.7266C60.2109 70.7266 59.5957 71.4512 59.5957 72.9004ZM58.5117 72.9238C58.5117 70.873 59.4883 69.8477 61.4414 69.8477C63.3945 69.8477 64.3711 70.873 64.3711 72.9238C64.3711 74.9707 63.3945 75.9941 61.4414 75.9941C59.4961 75.9941 58.5195 74.9707 58.5117 72.9238ZM68.373 69.8477C70.123 69.8477 70.998 70.7129 70.998 72.4434C70.998 72.6895 70.9805 72.9531 70.9453 73.2344H66.627C66.627 74.4922 67.3613 75.1211 68.8301 75.1211C69.5293 75.1211 70.1504 75.043 70.6934 74.8867V75.7656C70.1504 75.9219 69.4902 76 68.7129 76C66.5996 76 65.543 74.9512 65.543 72.8535C65.543 70.8496 66.4863 69.8477 68.373 69.8477ZM66.627 72.332H69.9551C69.9316 71.2539 69.4043 70.7148 68.373 70.7148C67.2793 70.7148 66.6973 71.2539 66.627 72.332Z" fill="black"/>
</svg>
