<svg width="271" height="182" viewBox="0 0 271 182" fill="none" xmlns="http://www.w3.org/2000/svg">
<path d="M1.5 1.5H269.5V155.128H1.5V1.5Z" fill="#9BE9F3" stroke="black" stroke-width="3"/>
<rect x="106.729" y="74.9707" width="155.994" height="78.2893" fill="#FCF4CD"/>
<rect x="106.729" y="49.6602" width="155.994" height="35.3185" fill="#E11B1B"/>
<path d="M185.037 32.5889L248.547 88.657H121.526L185.037 32.5889Z" fill="#FCF4CD"/>
<rect x="173.85" y="67.9062" width="22.3736" height="27.0775" fill="#78320B"/>
<path d="M173.908 69.0151C173.915 68.0966 174.212 67.1892 174.781 66.3447C175.351 65.5003 176.181 64.7354 177.225 64.0936C178.269 63.4518 179.507 62.9457 180.867 62.6043C182.227 62.2629 183.683 62.0928 185.152 62.1037C186.621 62.1146 188.074 62.3063 189.429 62.6679C190.783 63.0295 192.012 63.5539 193.045 64.2111C194.079 64.8683 194.896 65.6455 195.451 66.4983C196.006 67.3511 196.288 68.2628 196.281 69.1813L185.094 69.0982L173.908 69.0151Z" fill="#78320B"/>
<rect x="175.714" y="70.2607" width="18.6447" height="22.957" fill="#C8E8FB"/>
<rect x="103" y="96.75" width="164.073" height="2.94321" fill="#78320B"/>
<rect x="120.402" y="116.175" width="36.6679" height="2.94321" fill="#78320B"/>
<path d="M175.773 70.5555C175.789 68.7602 176.786 67.0461 178.546 65.7904C180.305 64.5346 182.682 63.84 185.154 63.8594C187.627 63.8788 189.992 64.6105 191.729 65.8937C193.466 67.1768 194.433 68.9063 194.417 70.7016L185.095 70.6285L175.773 70.5555Z" fill="#C8E8FB"/>
<rect x="123.509" y="119.119" width="31.0745" height="25.3116" fill="#C8E8FB"/>
<rect x="209.275" y="119.119" width="31.0745" height="25.3116" fill="#C8E8FB"/>
<rect x="206.167" y="116.175" width="36.6679" height="2.94321" fill="#78320B"/>
<rect x="175.714" y="126.771" width="15.5372" height="26.4889" fill="#78320B"/>
<rect x="183.794" y="63.7861" width="1.86447" height="29.4321" fill="#78320B"/>
<rect width="1.76592" height="18.6447" transform="matrix(0.00225833 -0.999997 0.999998 0.00202591 175.714 74.9707)" fill="#78320B"/>
<rect width="79.1665" height="1.81261" transform="matrix(0.748249 -0.663418 0.702948 0.711241 125.374 85.1074)" fill="#78320B"/>
<rect width="79.1665" height="1.81261" transform="matrix(0.748247 0.663421 -0.702951 0.711238 185.068 32)" fill="#78320B"/>
<rect width="47.3379" height="1.4716" transform="matrix(0.999996 0.00272868 -0.00304171 0.999995 161.604 53.1689)" fill="#78320B"/>
<rect width="1.52033" height="14.1546" transform="matrix(0.78287 -0.622186 0.663123 0.74851 175.093 42.9521)" fill="#78320B"/>
<rect width="1.52033" height="14.1546" transform="matrix(0.78287 0.622186 -0.663123 0.74851 194.423 42.0068)" fill="#78320B"/>
<rect width="3.10745" height="35.3185" transform="matrix(-1 0 0 1 263.966 49.6602)" fill="#78320B"/>
<rect width="3.10745" height="35.3185" transform="matrix(-1 0 0 1 108.593 49.6592)" fill="#78320B"/>
<rect x="184.415" y="34.3545" width="1.55372" height="19.4252" fill="#78320B"/>
<rect x="105.486" y="84.3877" width="21.1306" height="1.76592" fill="#78320B"/>
<rect x="242.835" y="83.8008" width="21.1306" height="1.76592" fill="#78320B"/>
<rect x="105.486" y="99.6934" width="158.48" height="4.12049" fill="#78320B"/>
<rect x="123.509" y="119.119" width="31.0745" height="4.12049" fill="#78320B"/>
<rect x="209.275" y="119.119" width="31.0745" height="4.12049" fill="#78320B"/>
<line x1="109.215" y1="52.6904" x2="160.799" y2="52.6904" stroke="#AD3636"/>
<line x1="109.215" y1="58.5771" x2="154.588" y2="58.5771" stroke="#AD3636"/>
<line x1="226.055" y1="65.0518" x2="259.615" y2="65.0518" stroke="#AD3636"/>
<line x1="109.836" y1="65.0518" x2="143.397" y2="65.0518" stroke="#AD3636"/>
<line x1="109.836" y1="72.7051" x2="136.56" y2="72.7051" stroke="#AD3636"/>
<line x1="234.756" y1="72.7041" x2="258.994" y2="72.7041" stroke="#AD3636"/>
<line x1="216.733" y1="58.5771" x2="258.994" y2="58.5771" stroke="#AD3636"/>
<line x1="210.518" y1="52.6914" x2="260.237" y2="52.6914" stroke="#AD3636"/>
<line x1="139.546" y1="123.238" x2="139.546" y2="144.429" stroke="#78320B"/>
<line x1="225.312" y1="123.238" x2="225.312" y2="144.429" stroke="#78320B"/>
<line x1="123.509" y1="131.569" x2="154.584" y2="131.569" stroke="#78320B"/>
<line x1="209.275" y1="131.568" x2="240.349" y2="131.568" stroke="#78320B"/>
<ellipse cx="186.59" cy="140.897" rx="0.932234" ry="0.588641" fill="#C4C4C4"/>
<path d="M65.5833 72L85.1411 154.116H46.0256L65.5833 72Z" fill="#9792E3"/>
<ellipse cx="66.2258" cy="64.3719" rx="26.2258" ry="27.3719" fill="#FFE1CB"/>
<path d="M25.6371 112.57L35.1005 153.628H16.1737L25.6371 112.57Z" fill="#9792E3"/>
<ellipse cx="25.2124" cy="101.008" rx="18.2124" ry="19.0083" fill="#FFE1CB"/>
<path d="M127.497 71.4961L147.055 153.612H107.94L127.497 71.4961Z" fill="#564D80"/>
<ellipse cx="128.226" cy="62.3719" rx="26.2258" ry="27.3719" fill="#FFE1CB"/>
<path d="M151.82 105.014L140.625 130.011L128.653 118.307L151.82 105.014Z" fill="#FF8383"/>
<ellipse rx="15.6144" ry="11.93" transform="matrix(0.715095 0.699027 -0.667888 0.744262 153.812 102.794)" fill="#FFE1CB"/>
</svg>
