<svg width="219" height="147" viewBox="0 0 219 147" fill="none" xmlns="http://www.w3.org/2000/svg">
<rect x="1" y="1" width="5.97248" height="146" fill="black"/>
<rect x="212.027" y="1" width="5.97248" height="146" fill="black"/>
<path d="M218 1H1V62.4268C102.532 42.3963 106.016 41.9512 218 58.8659V1Z" fill="white" stroke="black"/>
<path d="M79.0898 7.86328V10.5H65.9062V18.9375H78.4746V21.5742H65.9062V33H62.6543V7.86328H79.0898ZM86.2266 14.543V33H82.9746V14.543H86.2266ZM86.2266 7.86328V10.9395H82.9746V7.86328H86.2266ZM91.8691 33V14.543H94.0664L94.6465 16.8984C96.5332 15.3281 98.6074 14.543 100.869 14.543C105.475 14.543 107.777 16.834 107.777 21.416V33H104.525V21.3633C104.525 18.6211 103.16 17.25 100.43 17.25C98.5664 17.25 96.7969 18.0293 95.1211 19.5879V33H91.8691ZM116.672 14.543V33H113.42V14.543H116.672ZM116.672 7.86328V10.9395H113.42V7.86328H116.672ZM122.139 32.1211V29.3086C124.307 30.0117 126.498 30.3633 128.713 30.3633C131.654 30.3633 133.125 29.4844 133.125 27.7266C133.125 26.0859 132.1 25.2656 130.049 25.2656H127.412C123.428 25.2656 121.436 23.4492 121.436 19.8164C121.436 16.3008 123.996 14.543 129.117 14.543C131.32 14.543 133.506 14.8359 135.674 15.4219V18.2344C133.506 17.5312 131.32 17.1797 129.117 17.1797C126.047 17.1797 124.512 18.0586 124.512 19.8164C124.512 21.457 125.479 22.2773 127.412 22.2773H130.049C134.268 22.2773 136.377 24.0938 136.377 27.7266C136.377 31.2422 133.822 33 128.713 33C126.498 33 124.307 32.707 122.139 32.1211ZM140.771 33V7.86328H144.023V16.5469C145.594 15.2109 147.51 14.543 149.771 14.543C154.377 14.543 156.68 16.834 156.68 21.416V33H153.428V21.3633C153.428 18.6211 152.062 17.25 149.332 17.25C147.469 17.25 145.699 18.0293 144.023 19.5879V33H140.771Z" fill="black"/>
</svg>
