<svg width="201" height="268" viewBox="0 0 201 268" fill="none" xmlns="http://www.w3.org/2000/svg">
<path d="M68.3463 16.2405C69.4586 20.12 58.6049 22.1151 53.2032 22.0112C47.8015 21.9072 43.4028 4.18662 43.428 3.0849C43.4532 1.98318 67.234 12.3609 68.3463 16.2405Z" fill="#564D80"/>
<path d="M61.5 34.5L40 56.5L12 6L61.5 34.5Z" fill="#6CD4FF"/>
<path d="M44.3608 4.99912C49.7384 4.44645 50.9334 10.5258 50.9334 10.5258C47.6666 10.5258 46.1533 7.20979 42.5682 10.5258C38.9832 13.8418 46.1533 19.3685 46.1533 19.3685C46.1533 19.3685 53.921 23.2371 65.2737 15.4998C76.6265 7.76245 77.8215 8.31512 77.8215 8.31512C77.8215 8.31512 98.1369 -2.18518 108.892 3.89379C119.647 9.97275 119.647 15.4998 123.83 19.3685C128.013 23.2371 134.585 27.1053 138.17 23.2371C141.755 19.3689 135.78 7.76245 139.365 11.6311C142.95 15.4998 144.757 22.1765 145.938 29.8691C147.119 37.5617 131.092 52.6869 126.818 51.9758L68.2613 48.1071C68.2613 48.1071 55.116 45.8965 44.3608 41.4751C33.6055 37.0538 31.813 23.2371 33.6056 15.4998C35.3981 7.76245 38.9832 5.55179 44.3608 4.99912Z" fill="#61707D"/>
<path d="M63.1003 118.828C55.2689 123.555 50.608 128.929 50.608 128.929C44.3087 134.805 23.411 129.772 17.786 126.296C12.1611 122.821 -4.29547 101.933 3.23206 96.0934C10.7596 90.254 49.8609 41.8058 49.8609 41.8058C49.8609 41.8058 63.9969 47.7405 75.8821 46.4409C75.8821 46.4409 77.5785 -1.46811 80.2891 2.47112C82.9998 6.41035 113.225 28.2597 106.564 45.7023L127.08 51.8269C127.08 51.8269 137.191 100.64 140.882 104.609C144.574 108.578 140.601 116.729 137.745 121.054C134.889 125.379 109.415 145.568 108.373 138.921C107.331 132.275 107.534 100.373 96.6854 108.253C85.8368 116.133 70.9317 114.1 63.1003 118.828Z" fill="#564D80"/>
<path d="M142.508 225.176C142.508 225.176 141.156 256.102 148.321 263.568C155.487 271.035 112.444 253.254 104.647 239.193C96.8486 225.132 98.3254 217.36 99.3407 212.913C100.356 208.467 100.818 205.142 103.102 202.304C105.386 199.467 100.079 201.859 96.0416 205.862C92.0039 209.864 91.173 218.716 89.9963 219.308C88.8196 219.901 82.1984 205.247 82.4063 195.866C82.6143 186.486 90.2513 182.356 87.8057 181.34C85.36 180.324 74.4466 192.288 74.3083 188.984C74.1699 185.681 75.4623 173.505 75.993 171.832C76.5237 170.159 81.2079 152.9 105.157 136.617C129.107 120.334 130.076 114.785 130.076 114.785L133.421 108.602C133.421 108.602 134.414 89.2686 132.291 95.9601C130.168 102.652 121.191 123.921 123.27 110.063C125.349 96.205 122.394 89.1412 119.81 84.8208C117.226 80.5005 109.036 42.7444 115.196 46.3867C121.356 50.0289 136.195 39.5803 137.6 36.2231C139.004 32.8659 159.356 53.6509 172.737 71.9261C186.119 90.2012 193.086 113.114 193.086 113.114C193.109 113.665 200.26 140.982 186.855 165.164C185.589 167.446 168.738 183.698 159.866 192.488C163.498 188.876 145.826 204.833 142.508 225.176Z" fill="#61707D"/>
<path d="M53.5136 57.2635C53.5136 57.2635 70.6994 55.802 67.0136 59.7635C63.3277 63.7249 61.8304 66.0361 61.5136 69.2635C55.8027 66.6417 52.876 66.8259 48.0136 69.2635C47.8718 64.1886 48.7801 61.5152 53.5136 57.2635Z" fill="#F2F2F2"/>
</svg>
