<svg width="240" height="164" viewBox="0 0 240 164" fill="none" xmlns="http://www.w3.org/2000/svg">
<rect x="3.5" y="5.5" width="236" height="158" fill="#6CD4FF" stroke="black"/>
<rect x="152.5" y="73.5" width="29" height="90" fill="#003809" stroke="black"/>
<rect x="181.5" y="43.5" width="29" height="120" fill="#003809" stroke="black"/>
<rect x="210.5" y="19.5" width="29" height="144" fill="#003809" stroke="black"/>
<rect x="122.5" y="92.5" width="29" height="71" fill="#003809" stroke="black"/>
<path d="M227.466 17.4085C227.692 16.0464 226.771 14.7592 225.409 14.5336L203.211 10.8567C201.849 10.6311 200.562 11.5524 200.336 12.9146C200.11 14.2767 201.032 15.5639 202.394 15.7895L222.125 19.0579L218.857 38.789C218.631 40.1511 219.552 41.4383 220.915 41.6639C222.277 41.8896 223.564 40.9682 223.789 39.6061L227.466 17.4085ZM131.455 87.0329L226.455 19.0329L223.545 14.9671L128.545 82.9671L131.455 87.0329Z" fill="black"/>
<rect x="3.22727" y="98.1455" width="135.008" height="65.8544" fill="#FCF4CD"/>
<rect x="3.22727" y="76.8545" width="135.008" height="29.7087" fill="#E11B1B"/>
<path d="M71 62.4941L125.966 109.657H16.0336L71 62.4941Z" fill="#FCF4CD"/>
<rect x="61.3182" y="92.2031" width="19.3636" height="22.7767" fill="#78320B"/>
<path d="M61.3683 93.1358C61.3749 92.3632 61.6318 91.5999 62.1245 90.8896C62.6171 90.1793 63.3357 89.5359 64.2394 88.996C65.1431 88.4562 66.2141 88.0305 67.3912 87.7433C68.5683 87.4561 69.8286 87.313 71.1 87.3222C72.3714 87.3314 73.629 87.4927 74.8011 87.7968C75.9732 88.101 77.0368 88.5421 77.9311 89.0949C78.8255 89.6477 79.5331 90.3015 80.0136 91.0188C80.494 91.7361 80.7379 92.503 80.7314 93.2756L71.0498 93.2057L61.3683 93.1358Z" fill="#78320B"/>
<rect x="62.9318" y="94.1846" width="16.1364" height="19.3107" fill="#C8E8FB"/>
<rect y="116.466" width="142" height="2.47573" fill="#78320B"/>
<rect x="15.0606" y="132.807" width="31.7348" height="2.47573" fill="#78320B"/>
<path d="M62.983 94.4322C62.9965 92.922 63.8596 91.4802 65.3822 90.4239C66.9048 89.3676 68.9623 88.7833 71.102 88.7996C73.2418 88.8159 75.2885 89.4315 76.7919 90.5108C78.2954 91.5901 79.1324 93.0449 79.1188 94.555L71.0509 94.4936L62.983 94.4322Z" fill="#C8E8FB"/>
<rect x="17.75" y="135.281" width="26.8939" height="21.2913" fill="#C8E8FB"/>
<rect x="91.9773" y="135.281" width="26.8939" height="21.2913" fill="#C8E8FB"/>
<rect x="89.2879" y="132.807" width="31.7348" height="2.47573" fill="#78320B"/>
<rect x="62.9318" y="141.719" width="13.447" height="22.2816" fill="#78320B"/>
<rect x="69.9242" y="88.7373" width="1.61364" height="24.7573" fill="#78320B"/>
<rect width="1.48544" height="16.1364" transform="matrix(0.00232357 -0.999997 0.999998 0.00196903 62.9318 98.1455)" fill="#78320B"/>
<rect width="67.6761" height="1.54663" transform="matrix(0.757536 -0.652793 0.713004 0.70116 19.3636 106.673)" fill="#78320B"/>
<rect width="67.6761" height="1.54663" transform="matrix(0.757533 0.652796 -0.713007 0.701157 71.027 62)" fill="#78320B"/>
<rect width="40.9694" height="1.23786" transform="matrix(0.999996 0.00265207 -0.00312959 0.999995 50.7197 79.8076)" fill="#78320B"/>
<rect width="1.30162" height="12.0588" transform="matrix(0.791397 -0.611303 0.673654 0.739047 62.3939 71.2129)" fill="#78320B"/>
<rect width="1.30162" height="12.0588" transform="matrix(0.791397 0.611303 -0.673654 0.739047 79.1235 70.418)" fill="#78320B"/>
<rect width="2.68939" height="29.7087" transform="matrix(-1 0 0 1 139.311 76.8545)" fill="#78320B"/>
<rect width="2.68939" height="29.7087" transform="matrix(-1 0 0 1 4.84091 76.8545)" fill="#78320B"/>
<rect x="70.4621" y="63.9805" width="1.3447" height="16.3398" fill="#78320B"/>
<rect x="2.15151" y="106.067" width="18.2879" height="1.48544" fill="#78320B"/>
<rect x="121.023" y="105.573" width="18.2879" height="1.48544" fill="#78320B"/>
<rect x="2.15151" y="118.942" width="137.159" height="3.46602" fill="#78320B"/>
<rect x="17.75" y="135.281" width="26.8939" height="3.46602" fill="#78320B"/>
<rect x="91.9773" y="135.281" width="26.8939" height="3.46602" fill="#78320B"/>
<line x1="5.37879" y1="79.3252" x2="50.0227" y2="79.3252" stroke="#AD3636"/>
<line x1="5.37879" y1="84.2764" x2="44.6476" y2="84.2764" stroke="#AD3636"/>
<line x1="106.5" y1="89.7236" x2="135.545" y2="89.7236" stroke="#AD3636"/>
<line x1="5.91667" y1="89.7236" x2="34.9621" y2="89.7236" stroke="#AD3636"/>
<line x1="5.91667" y1="96.1602" x2="29.0455" y2="96.1602" stroke="#AD3636"/>
<line x1="114.03" y1="96.1602" x2="135.008" y2="96.1602" stroke="#AD3636"/>
<line x1="98.4318" y1="84.2764" x2="135.008" y2="84.2764" stroke="#AD3636"/>
<line x1="93.053" y1="79.3252" x2="136.083" y2="79.3252" stroke="#AD3636"/>
<line x1="31.697" y1="138.747" x2="31.697" y2="156.572" stroke="#78320B"/>
<line x1="105.924" y1="138.747" x2="105.924" y2="156.572" stroke="#78320B"/>
<line x1="17.75" y1="145.675" x2="44.6439" y2="145.675" stroke="#78320B"/>
<line x1="91.9773" y1="145.675" x2="118.871" y2="145.675" stroke="#78320B"/>
<ellipse cx="72.3447" cy="153.603" rx="0.806818" ry="0.495146" fill="#C4C4C4"/>
<path d="M155.093 45.4204L154.213 44.2057L155.32 43.4035L156.21 44.6308C156.805 44.2635 157.437 43.954 158.103 43.7024L158.837 44.7146C157.873 45.027 156.995 45.4704 156.202 46.0449C155.097 46.8456 154.774 47.5623 155.232 48.1949C155.66 48.7854 156.222 48.8284 156.918 48.3242L157.867 47.6366C159.385 46.5364 160.618 46.64 161.565 47.9474C162.332 49.006 162.133 50.0893 160.968 51.1974L161.876 52.45L160.769 53.2522L159.893 52.0439C159.178 52.5301 158.409 52.9295 157.587 53.2421L156.854 52.2299C157.817 51.9176 158.697 51.4726 159.495 50.895C160.553 50.1279 160.853 49.4281 160.395 48.7955C159.967 48.205 159.384 48.1772 158.646 48.712L157.697 49.3996C156.263 50.4387 155.072 50.3045 154.125 48.9971C153.282 47.8331 153.604 46.6409 155.093 45.4204ZM161.736 40.607L160.856 39.3924L161.963 38.5902L162.852 39.8175C163.448 39.4501 164.079 39.1407 164.746 38.8891L165.479 39.9013C164.516 40.2136 163.637 40.657 162.845 41.2316C161.74 42.0323 161.416 42.7489 161.875 43.3816C162.303 43.972 162.864 44.0151 163.56 43.5109L164.509 42.8232C166.027 41.723 167.26 41.8267 168.208 43.1341C168.975 44.1927 168.776 45.276 167.61 46.3841L168.518 47.6367L167.411 48.4389L166.535 47.2306C165.82 47.7168 165.051 48.1162 164.23 48.4288L163.496 47.4166C164.46 47.1042 165.34 46.6593 166.137 46.0817C167.196 45.3146 167.496 44.6148 167.037 43.9821C166.61 43.3917 166.027 43.3639 165.289 43.8987L164.34 44.5863C162.906 45.6254 161.715 45.4912 160.768 44.1838C159.924 43.0198 160.247 41.8275 161.736 40.607ZM168.378 35.7937L167.498 34.5791L168.605 33.7768L169.495 35.0041C170.09 34.6368 170.722 34.3273 171.388 34.0758L172.122 35.0879C171.158 35.4003 170.28 35.8437 169.487 36.4183C168.382 37.219 168.059 37.9356 168.517 38.5682C168.945 39.1587 169.507 39.2018 170.203 38.6975L171.152 38.0099C172.67 36.9097 173.903 37.0133 174.85 38.3207C175.617 39.3793 175.418 40.4627 174.253 41.5707L175.161 42.8233L174.054 43.6255L173.178 42.4172C172.463 42.9035 171.694 43.3029 170.872 43.6154L170.139 42.6032C171.102 42.2909 171.983 41.8459 172.78 41.2683C173.838 40.5013 174.138 39.8014 173.68 39.1688C173.252 38.5784 172.669 38.5505 171.931 39.0854L170.982 39.773C169.548 40.812 168.357 40.6779 167.41 39.3705C166.567 38.2064 166.889 37.0142 168.378 35.7937Z" fill="black"/>
</svg>
