<svg width="261" height="165" viewBox="0 0 261 165" fill="none" xmlns="http://www.w3.org/2000/svg">
<rect x="1.8" y="1.5" width="257.7" height="162" fill="#9BE9F3" stroke="black" stroke-width="3"/>
<rect x="164.5" y="68.5" width="32" height="93.434" fill="#003809" stroke="black"/>
<rect x="196.5" y="36.5" width="32" height="124.566" fill="#003809" stroke="black"/>
<rect x="225.5" y="12.5" width="32" height="149.472" fill="#003809" stroke="black"/>
<rect x="131.5" y="87.5" width="32" height="73.717" fill="#003809" stroke="black"/>
<path d="M247.034 12.8715C247.253 11.5474 246.296 10.2863 244.897 10.0549L222.095 6.284C220.695 6.0526 219.384 6.93844 219.165 8.26259C218.946 9.58673 219.902 10.8478 221.302 11.0792L241.57 14.4311L238.398 33.6117C238.179 34.9359 239.136 36.1969 240.535 36.4283C241.934 36.6597 243.246 35.7739 243.465 34.4497L247.034 12.8715ZM141.511 85.0102L246.011 14.4441L242.989 10.4609L138.489 81.0269L141.511 85.0102Z" fill="black"/>
<rect x="7.54999" y="93.5098" width="148.508" height="68.3394" fill="#FCF4CD"/>
<rect x="7.54999" y="71.415" width="148.508" height="30.8298" fill="#E11B1B"/>
<path d="M82.1 56.5127L142.563 105.455H21.637L82.1 56.5127Z" fill="#FCF4CD"/>
<rect x="71.45" y="87.3428" width="21.3" height="23.6362" fill="#78320B"/>
<path d="M71.5051 88.3109C71.5124 87.5091 71.795 86.717 72.3369 85.9799C72.8788 85.2428 73.6693 84.5751 74.6633 84.0149C75.6574 83.4546 76.8355 83.0129 78.1303 82.7149C79.4252 82.4168 80.8114 82.2683 82.21 82.2779C83.6085 82.2874 84.9919 82.4548 86.2812 82.7704C87.5705 83.086 88.7405 83.5438 89.7243 84.1174C90.7081 84.6911 91.4864 85.3695 92.0149 86.114C92.5434 86.8584 92.8117 87.6542 92.8045 88.456L82.1548 88.3834L71.5051 88.3109Z" fill="#78320B"/>
<rect x="73.225" y="89.3994" width="17.75" height="20.0394" fill="#C8E8FB"/>
<rect x="4" y="112.521" width="156.2" height="2.56915" fill="#78320B"/>
<rect x="20.5667" y="129.479" width="34.9083" height="2.56915" fill="#78320B"/>
<path d="M73.2813 89.656C73.2962 88.0889 74.2455 86.5927 75.9204 85.4965C77.5953 84.4004 79.8585 83.794 82.2123 83.8109C84.566 83.8278 86.8174 84.4666 88.4711 85.5867C90.1249 86.7068 91.0456 88.2164 91.0307 89.7835L82.156 89.7198L73.2813 89.656Z" fill="#C8E8FB"/>
<rect x="23.525" y="132.047" width="29.5833" height="22.0947" fill="#C8E8FB"/>
<rect x="105.175" y="132.047" width="29.5833" height="22.0947" fill="#C8E8FB"/>
<rect x="102.217" y="129.479" width="34.9083" height="2.56915" fill="#78320B"/>
<rect x="73.225" y="138.727" width="14.7917" height="23.1224" fill="#78320B"/>
<rect x="80.9167" y="83.7461" width="1.775" height="25.6915" fill="#78320B"/>
<rect width="1.54149" height="17.75" transform="matrix(0.00246298 -0.999997 0.999998 0.00185758 73.225 93.5098)" fill="#78320B"/>
<rect width="72.6779" height="1.65465" transform="matrix(0.775941 -0.630805 0.733103 0.680118 25.3 102.358)" fill="#78320B"/>
<rect width="72.6779" height="1.65465" transform="matrix(0.775939 0.630808 -0.733106 0.680115 82.1297 56)" fill="#78320B"/>
<rect width="45.0664" height="1.28458" transform="matrix(0.999997 0.00250195 -0.00331736 0.999994 59.7917 74.4795)" fill="#78320B"/>
<rect width="1.40204" height="12.86" transform="matrix(0.808182 -0.588933 0.694852 0.719153 72.6333 65.5605)" fill="#78320B"/>
<rect width="1.40204" height="12.86" transform="matrix(0.808182 0.588932 -0.694852 0.719153 91.0358 64.7354)" fill="#78320B"/>
<rect width="2.95833" height="30.8298" transform="matrix(-1 0 0 1 157.242 71.415)" fill="#78320B"/>
<rect width="2.95833" height="30.8298" transform="matrix(-1 0 0 1 9.325 71.415)" fill="#78320B"/>
<rect x="81.5083" y="58.0557" width="1.47917" height="16.9564" fill="#78320B"/>
<rect x="6.36667" y="101.73" width="20.1167" height="1.54149" fill="#78320B"/>
<rect x="137.125" y="101.218" width="20.1167" height="1.54149" fill="#78320B"/>
<rect x="6.36667" y="115.091" width="150.875" height="3.59681" fill="#78320B"/>
<rect x="23.525" y="132.047" width="29.5833" height="3.59681" fill="#78320B"/>
<rect x="105.175" y="132.047" width="29.5833" height="3.59681" fill="#78320B"/>
<line x1="9.91666" y1="73.998" x2="59.025" y2="73.998" stroke="#AD3636"/>
<line x1="9.91666" y1="79.1357" x2="53.1124" y2="79.1357" stroke="#AD3636"/>
<line x1="121.15" y1="84.7891" x2="153.1" y2="84.7891" stroke="#AD3636"/>
<line x1="10.5083" y1="84.7891" x2="42.4583" y2="84.7891" stroke="#AD3636"/>
<line x1="10.5083" y1="91.4678" x2="35.95" y2="91.4678" stroke="#AD3636"/>
<line x1="129.433" y1="91.4678" x2="152.508" y2="91.4678" stroke="#AD3636"/>
<line x1="112.275" y1="79.1357" x2="152.508" y2="79.1357" stroke="#AD3636"/>
<line x1="106.358" y1="73.998" x2="153.692" y2="73.998" stroke="#AD3636"/>
<line x1="38.8167" y1="135.644" x2="38.8167" y2="154.141" stroke="#78320B"/>
<line x1="120.467" y1="135.644" x2="120.467" y2="154.141" stroke="#78320B"/>
<line x1="23.525" y1="142.852" x2="53.1083" y2="142.852" stroke="#78320B"/>
<line x1="105.175" y1="142.852" x2="134.758" y2="142.852" stroke="#78320B"/>
<ellipse cx="83.5792" cy="151.06" rx="0.8875" ry="0.51383" fill="#C4C4C4"/>
<path d="M167.17 41.8569L166.257 40.6673L167.385 39.8958L168.309 41.0977C168.917 40.7452 169.561 40.4493 170.243 40.21L171.005 41.2013C170.019 41.4972 169.122 41.9215 168.313 42.4741C167.187 43.2442 166.862 43.939 167.337 44.5586C167.782 45.1369 168.358 45.1835 169.068 44.6985L170.035 44.0372C171.583 42.979 172.849 43.0902 173.832 44.3706C174.629 45.4074 174.434 46.4602 173.248 47.5289L174.191 48.7557L173.062 49.5273L172.153 48.3439C171.423 48.8111 170.638 49.1935 169.798 49.4908L169.037 48.4995C170.022 48.2036 170.922 47.7778 171.734 47.2223C172.813 46.4845 173.115 45.8059 172.639 45.1863C172.195 44.608 171.597 44.5761 170.844 45.0905L169.877 45.7518C168.415 46.7512 167.192 46.6106 166.209 45.3302C165.333 44.1901 165.654 43.0324 167.17 41.8569ZM173.942 37.2275L173.029 36.0379L174.157 35.2664L175.081 36.4683C175.689 36.1158 176.333 35.8199 177.015 35.5806L177.777 36.5719C176.791 36.8678 175.894 37.2921 175.085 37.8447C173.959 38.6148 173.634 39.3096 174.109 39.9292C174.554 40.5075 175.13 40.5541 175.84 40.0691L176.807 39.4078C178.355 38.3496 179.621 38.4608 180.604 39.7412C181.401 40.778 181.206 41.8308 180.02 42.8995L180.963 44.1263L179.834 44.8979L178.925 43.7145C178.195 44.1817 177.41 44.5641 176.57 44.8614L175.809 43.8701C176.794 43.5742 177.694 43.1484 178.506 42.5929C179.585 41.8551 179.887 41.1765 179.411 40.5569C178.967 39.9786 178.369 39.9467 177.616 40.4611L176.649 41.1224C175.187 42.1218 173.964 41.9812 172.981 40.7008C172.105 39.5607 172.426 38.403 173.942 37.2275ZM180.714 32.5981L179.801 31.4085L180.929 30.637L181.853 31.8389C182.46 31.4864 183.105 31.1905 183.787 30.9512L184.549 31.9425C183.563 32.2384 182.666 32.6627 181.857 33.2153C180.731 33.9854 180.406 34.6802 180.881 35.2998C181.326 35.8781 181.902 35.9247 182.612 35.4397L183.579 34.7784C185.127 33.7202 186.393 33.8314 187.376 35.1118C188.173 36.1486 187.978 37.2014 186.792 38.2701L187.735 39.4969L186.606 40.2685L185.697 39.0851C184.967 39.5523 184.182 39.9347 183.342 40.232L182.581 39.2407C183.566 38.9448 184.466 38.519 185.278 37.9635C186.357 37.2257 186.659 36.5471 186.183 35.9275C185.739 35.3492 185.141 35.3173 184.388 35.8317L183.421 36.493C181.959 37.4924 180.736 37.3518 179.753 36.0714C178.877 34.9313 179.198 33.7736 180.714 32.5981Z" fill="black"/>
</svg>
