<svg width="264" height="144" viewBox="0 0 264 144" fill="none" xmlns="http://www.w3.org/2000/svg">
<path d="M255.546 84.6288C258.234 86.4128 261.818 83.978 263.394 86.8834C264.5 88.922 263.838 90.5949 263.394 92.8957C262.516 97.4431 261.967 97.4049 256.973 102.666C251.978 107.926 251.265 107.175 249.838 110.181C248.411 113.187 242.906 112.1 239.135 114.69C235.174 117.411 233.411 119.725 230.573 123.708C228.249 126.969 225.578 132.727 225.578 132.727C225.578 132.727 222.724 144 221.297 144C219.87 144 218.482 141.293 216.303 140.242C213.47 138.877 211.308 140.493 208.454 138.739C205.6 136.986 200.178 132.727 201.319 129.721C202.461 126.715 199.179 118.448 197.752 114.69C196.325 110.932 192.757 107.175 191.33 107.175C189.903 107.175 194.184 105.221 191.33 100.411C191.33 95.6012 186.574 94.3987 184.195 94.3987C181.817 94.3987 183.523 90.6251 184.195 88.3865C185.089 85.412 187.747 85.0988 189.19 82.3742C190.478 79.9427 190.598 78.2858 191.33 75.6105C191.967 73.285 193.52 71.8812 192.757 69.5982C191.962 67.2167 187.763 65.8406 187.763 65.8406C187.763 65.8406 185.427 61.3824 185.622 58.3252C185.782 55.8233 185.737 53.6309 187.763 52.313C190.238 50.7025 192.081 53.8012 194.898 54.5676C197.385 55.2444 199.179 55.3196 201.319 56.0706C203.46 56.8217 204.051 58.9948 206.314 59.8283C210.033 61.1986 212.363 58.2717 216.303 58.3252C224.587 58.4379 236.281 65.8406 236.281 65.8406C236.281 65.8406 239.734 67.6645 241.276 69.5982C243.205 72.0193 241.49 75.6104 244.13 77.1135C246.091 78.23 247.697 74.8589 249.838 77.1135C251.978 79.3681 252.527 82.6252 255.546 84.6288Z" fill="#6FCF97"/>
<path d="M153.719 66.8868C153.719 66.1353 150.865 60.8746 149.438 60.8746C148.011 60.8746 143.016 66.1353 143.016 66.1353C143.016 66.1353 141.589 67.6384 143.016 68.3899C144.443 69.1414 145.157 69.1414 145.157 69.1414C145.157 69.1414 153.719 67.6384 153.719 66.8868Z" fill="#6FCF97"/>
<path d="M164.421 60.1231C161.834 61.3616 157.286 61.6261 157.286 61.6261C157.286 61.6261 156.85 61.6585 156.573 61.6261C155.006 61.4428 155.059 59.4939 153.719 58.62C153.189 58.2746 152.732 58.3325 152.292 57.8685C151.306 56.8308 152.635 55.533 152.292 54.1108C151.891 52.4522 151.475 51.3447 150.151 50.3532C149.643 49.9729 149.332 49.744 148.724 49.6016C148.18 49.4743 147.297 49.6016 147.297 49.6016C147.297 49.6016 146.862 49.5948 146.584 49.6016C144.889 49.6431 143.984 50.5752 142.303 50.3532C140.814 50.1566 139.448 49.6016 139.448 49.6016C139.448 49.6016 137.308 48.8498 135.881 48.0986C134.428 47.3335 135.037 47.441 134.454 45.8437C134.042 44.7142 133.74 44.3403 133.027 42.8376C132.313 41.3348 133.027 37.5779 134.454 36.0738C134.454 36.0738 135.802 33.7193 136.595 33.0687C137.388 32.4176 138.078 32.6742 139.448 33.0679C140.418 33.3464 140.743 34.0001 141.589 34.571C142.957 35.4942 144.599 36.2386 145.157 36.8256L146.584 38.3287C147.141 38.9156 146.189 39.4167 146.584 39.8317C146.978 40.2468 147.458 39.9045 148.011 39.8317C148.885 39.7166 149.34 39.443 150.151 39.0802C152.357 38.0933 152.965 36.3718 155.146 35.3225C157.235 34.3167 158.564 33.6185 160.854 33.8195C161.999 33.92 162.62 34.181 163.708 34.571C165.477 35.2055 166.874 36.2386 167.989 36.8256L170.843 38.3287C171.957 38.9156 175.913 37.9926 176.551 38.3287C177.978 39.0802 179.088 39.8004 180.118 41.3348C180.985 42.6252 181.636 43.5148 181.545 45.0924C181.447 46.8007 180.362 47.4673 179.405 48.8501C177.196 52.0406 175.594 53.7885 172.27 55.6139C170.939 56.3445 170.041 56.4023 168.702 57.1169C166.91 58.0738 166.25 59.2473 164.421 60.1231Z" fill="#6FCF97"/>
<path d="M128.032 57.8672C128.032 57.8672 125.487 59.69 123.751 59.3702C121.994 59.0465 121.035 58.0155 120.184 56.3641C119.636 55.3007 120.166 54.3214 119.47 53.358C118.562 52.0997 117.335 51.5761 115.903 51.1034C114.807 50.7415 115.189 51.1034 113.762 51.1034C112.648 51.1034 112.616 49.1792 113.049 48.0973C113.774 46.2828 115.552 46.4502 117.33 45.8427C119.73 45.0226 121.254 44.7139 123.751 45.0911C126.468 45.5014 126.039 45.3601 128.032 47.3463C129.045 48.3546 132.314 50.3524 132.313 51.1034C132.313 52.0315 131.98 52.5207 131.6 53.358C131.166 54.3126 130.804 54.7889 130.173 55.6126C129.431 56.5818 128.032 57.8672 128.032 57.8672Z" fill="#6FCF97"/>
<path d="M102.346 39.0795C99.968 39.33 95.0686 39.6807 94.4978 39.0795C94.4978 38.4782 94.2599 37.0754 94.4978 36.8249L95.9248 35.3218L96.6383 33.0672C96.6383 33.0672 95.2539 31.0434 95.9248 30.0611C96.4393 29.3076 98.0653 29.3095 98.0653 29.3095H102.346H103.773C104.725 29.5601 107.484 29.1592 108.054 28.558C108.625 27.9568 112.573 27.556 113.049 27.8065C114 27.8065 114.619 26.3034 115.189 26.3034C115.665 26.3034 118.9 27.8065 119.47 27.8065C120.612 27.8065 125.892 24.8004 125.892 24.8004C125.892 24.8004 127.597 24.0489 128.746 24.0488C137.308 24.0479 128.27 32.5662 128.032 33.0672C126.605 33.8187 125.178 36.0733 124.465 36.0733H120.897H115.903H109.481L102.346 39.0795Z" fill="#6FCF97"/>
<path d="M88.7897 24.049C89.8131 24.599 89.9464 23.4242 90.9302 24.049C94.1407 26.0877 88.0762 32.3158 85.9357 31.5643C84.5878 31.0911 82.3611 33.0158 80.9411 33.0667C77.6816 33.1833 77.8423 27.2486 75.2331 29.3097C72.3792 31.5643 63.1036 34.3549 62.39 33.8182C57.3955 30.0612 48.1199 21.7937 48.1199 16.5329C48.1199 15.0306 56.682 12.776 56.682 12.776C59.536 12.775 60.9021 1.2297 65.9575 3.00539C68.098 3.75722 70.9521 9.01733 75.9466 13.5268C77.0253 14.5008 75.5541 16.345 76.6601 17.2845C77.7446 18.2057 77.4141 17.8484 78.8007 17.9916C80.2147 18.1376 81.1831 15.6631 82.3682 16.4886C83.7234 17.4325 84.9334 19.696 85.9357 21.0429C86.908 22.3496 87.3856 23.2945 88.7897 24.049Z" fill="#6FCF97"/>
<path d="M35.2769 20.2913C33.6121 22.5459 34.5634 21.7935 32.4229 24.0481C30.2824 26.3027 32.4419 26.3027 23.8608 26.3027C23.1473 26.3027 17.4393 27.8057 15.2988 24.0481C14.0006 21.7692 11.3857 25.1517 8.87722 23.2966C6.63125 21.6356 5.17508 20.9238 5.30973 18.0368C5.41384 15.8043 6.88104 14.1777 7.45021 12.0244C7.90481 10.3046 6.37882 10.4016 7.45021 9.01831C8.08528 8.19835 12.4447 5.2598 12.4447 5.2598C12.4447 5.2598 16.0123 2.25368 17.4393 1.50306C19.6967 0.315699 20.2933 1.50195 22.4338 0.750416C24.5716 -0.00015765 27.4211 -6.77564e-05 29.5607 0H29.5689C31.7094 6.94933e-05 33.1951 1.68471 34.5634 3.75766C36.1855 6.21513 36.2283 8.26635 35.9904 11.273C35.7526 14.2796 34.3668 12.4893 34.5634 13.5268C34.7177 14.3411 35.5901 14.3153 35.9904 15.0306C36.9909 16.8185 35.2769 20.2913 35.2769 20.2913Z" fill="#6FCF97"/>
<path d="M4.59619 40.5827C3.3779 42.2911 5.0481 44.2865 3.16919 45.0919C1.85318 45.6559 0.315163 44.3403 0.315163 44.3403C0.0773283 42.0858 -0.255641 37.276 0.315163 36.0735C0.885967 34.871 2.45567 33.0674 3.88268 32.3158C3.88268 32.3158 4.35836 28.0572 6.0232 27.8067C7.68805 27.5561 11.4359 27.4955 11.7312 27.8067C12.4447 28.5582 11.7312 29.3097 11.0177 30.0612C10.4469 30.6625 9.59072 33.0674 9.59072 33.0674C9.59072 33.0674 10.2997 35.5281 9.59072 36.825C8.46981 38.8756 5.94537 38.6907 4.59619 40.5827Z" fill="#6FCF97"/>
</svg>
