<svg width="186" height="96" viewBox="0 0 186 96" fill="none" xmlns="http://www.w3.org/2000/svg">
<path d="M179.078 56.3044C180.961 57.4912 183.473 55.8714 184.578 57.8044C185.353 59.1607 184.889 60.2736 184.578 61.8044C183.962 64.8298 183.578 64.8044 180.078 68.3044C176.578 71.8044 176.078 71.3044 175.078 73.3044C174.078 75.3044 170.22 74.5812 167.578 76.3044C164.802 78.1146 163.567 79.6541 161.578 82.3044C159.949 84.474 158.078 88.3044 158.078 88.3044C158.078 88.3044 156.078 95.8044 155.078 95.8044C154.078 95.8044 153.105 94.0034 151.578 93.3044C149.593 92.3959 148.078 93.4711 146.078 92.3044C144.078 91.1377 140.278 88.3044 141.078 86.3044C141.878 84.3044 139.578 78.8044 138.578 76.3044C137.578 73.8044 135.078 71.3044 134.078 71.3044C133.078 71.3044 136.078 70.0044 134.078 66.8044C134.078 63.6044 130.744 62.8044 129.078 62.8044C127.411 62.8044 128.607 60.2937 129.078 58.8044C129.704 56.8254 131.567 56.6171 132.578 54.8044C133.48 53.1867 133.565 52.0843 134.078 50.3044C134.524 48.7572 135.612 47.8233 135.078 46.3044C134.52 44.7199 131.578 43.8044 131.578 43.8044C131.578 43.8044 129.941 40.8384 130.078 38.8044C130.19 37.1399 130.159 35.6812 131.578 34.8044C133.312 33.733 134.604 35.7945 136.578 36.3044C138.321 36.7547 139.578 36.8047 141.078 37.3044C142.578 37.8041 142.992 39.2498 144.578 39.8044C147.184 40.7161 148.817 38.7688 151.578 38.8044C157.383 38.8793 165.578 43.8044 165.578 43.8044C165.578 43.8044 167.998 45.0178 169.078 46.3044C170.43 47.9152 169.228 50.3044 171.078 51.3044C172.452 52.0472 173.578 49.8044 175.078 51.3044C176.578 52.8044 176.962 54.9713 179.078 56.3044Z" fill="#6FCF97"/>
<path d="M107.721 44.5005C107.721 44.0005 105.721 40.5005 104.721 40.5005C103.721 40.5005 100.221 44.0005 100.221 44.0005C100.221 44.0005 99.2208 45.0005 100.221 45.5005C101.221 46.0005 101.721 46.0005 101.721 46.0005C101.721 46.0005 107.721 45.0005 107.721 44.5005Z" fill="#6FCF97"/>
<path d="M115.221 40.0005C113.408 40.8245 110.221 41.0005 110.221 41.0005C110.221 41.0005 109.915 41.022 109.721 41.0005C108.623 40.8785 108.66 39.5819 107.721 39.0005C107.35 38.7707 107.03 38.8092 106.721 38.5005C106.03 37.8101 106.961 36.9467 106.721 36.0005C106.44 34.897 106.149 34.1601 105.221 33.5005C104.865 33.2475 104.647 33.0952 104.221 33.0005C103.84 32.9158 103.221 33.0005 103.221 33.0005C103.221 33.0005 102.916 32.9959 102.721 33.0005C101.533 33.0281 100.899 33.6482 99.7208 33.5005C98.6775 33.3697 97.7208 33.0005 97.7208 33.0005C97.7208 33.0005 96.2208 32.5003 95.2208 32.0005C94.2024 31.4915 94.6296 31.563 94.2208 30.5003C93.9318 29.7489 93.7208 29.5001 93.2208 28.5003C92.7208 27.5005 93.2208 25.001 94.2208 24.0003C94.2208 24.0003 95.1656 22.4339 95.7208 22.001C96.2766 21.5678 96.7603 21.7385 97.7208 22.0005C98.4 22.1857 98.628 22.6207 99.2208 23.0005C100.179 23.6147 101.33 24.11 101.721 24.5005L102.721 25.5005C103.111 25.891 102.445 26.2243 102.721 26.5005C102.997 26.7766 103.333 26.5489 103.721 26.5005C104.334 26.4239 104.652 26.2418 105.221 26.0005C106.767 25.3439 107.193 24.1986 108.721 23.5005C110.185 22.8313 111.116 22.3668 112.721 22.5005C113.523 22.5673 113.959 22.741 114.721 23.0005C115.961 23.4226 116.94 24.11 117.721 24.5005L119.721 25.5005C120.502 25.891 123.274 25.2769 123.721 25.5005C124.721 26.0005 125.499 26.4797 126.221 27.5005C126.828 28.359 127.284 28.9509 127.221 30.0005C127.152 31.137 126.392 31.5805 125.721 32.5005C124.173 34.6231 123.05 35.7861 120.721 37.0005C119.788 37.4866 119.159 37.525 118.221 38.0005C116.965 38.6371 116.503 39.4178 115.221 40.0005Z" fill="#6FCF97"/>
<path d="M89.7208 38.4996C89.7208 38.4996 87.9373 39.7124 86.7208 39.4996C85.4892 39.2842 84.8175 38.5983 84.2208 37.4996C83.8366 36.7922 84.208 36.1406 83.7208 35.4996C83.0846 34.6625 82.2242 34.3141 81.2208 33.9996C80.4526 33.7588 80.7209 33.9996 79.7208 33.9996C78.9398 33.9996 78.9177 32.7195 79.2208 31.9996C79.7291 30.7924 80.9749 30.9038 82.2208 30.4996C83.9027 29.954 84.9706 29.7487 86.7208 29.9996C88.6245 30.2726 88.3236 30.1786 89.7209 31.5C90.4302 32.1708 92.7209 33.5 92.7208 33.9996C92.7208 34.6171 92.4872 34.9426 92.2208 35.4996C91.9171 36.1348 91.6628 36.4516 91.2208 36.9996C90.7008 37.6445 89.7208 38.4996 89.7208 38.4996Z" fill="#6FCF97"/>
<path d="M71.7209 26C70.0542 26.1667 66.6209 26.4 66.2209 26C66.2209 25.6 66.0542 24.6667 66.2209 24.5L67.2209 23.5L67.7209 22C67.7209 22 66.7507 20.6536 67.2209 20C67.5814 19.4987 68.7209 19.5 68.7209 19.5H71.7209H72.7209C73.3875 19.6667 75.3209 19.4 75.7209 19C76.1209 18.6 78.8875 18.3333 79.2209 18.5C79.8875 18.5 80.3209 17.5 80.7209 17.5C81.0542 17.5 83.3209 18.5 83.7208 18.5C84.5208 18.5 88.2209 16.5 88.2209 16.5C88.2209 16.5 89.4158 16.0001 90.2209 16C96.2209 15.9994 89.8875 21.6667 89.7208 22C88.7208 22.5 87.7209 24 87.2209 24H84.7209H81.2208H76.7209L71.7209 26Z" fill="#6FCF97"/>
<path d="M62.2208 16C62.938 16.3659 63.0314 15.5843 63.7209 16C65.9706 17.3563 61.7209 21.5 60.2208 21C59.2763 20.6852 57.7159 21.9657 56.7208 21.9995C54.4367 22.0771 54.5492 18.1287 52.7209 19.5C50.7209 21 44.2209 22.8566 43.7208 22.4995C40.2209 20 33.7208 14.4995 33.7208 10.9995C33.7208 10 39.7208 8.49999 39.7208 8.49999C41.7208 8.4993 42.6781 0.818126 46.2208 1.99951C47.7208 2.49971 49.7208 5.99931 53.2208 8.99951C53.9768 9.64749 52.9458 10.8745 53.7208 11.4995C54.4808 12.1124 54.2492 11.8747 55.2209 11.97C56.2118 12.0671 56.8904 10.4208 57.7209 10.97C58.6706 11.598 59.5185 13.1039 60.2208 14C60.9022 14.8694 61.2369 15.498 62.2208 16Z" fill="#6FCF97"/>
<path d="M24.7209 13.5C23.5542 15 24.2209 14.4994 22.7209 15.9994C21.2209 17.4994 22.7342 17.4994 16.7209 17.4994C16.2208 17.4994 12.2209 18.4994 10.7209 15.9994C9.81113 14.4832 7.97871 16.7336 6.22086 15.4994C4.64696 14.3943 3.62652 13.9208 3.72088 12C3.79384 10.5147 4.822 9.43254 5.22086 7.99996C5.53943 6.85575 4.47006 6.92028 5.22086 5.99996C5.66589 5.45443 8.72086 3.49939 8.72086 3.49939C8.72086 3.49939 11.2209 1.49939 12.2209 1C13.8028 0.210037 14.2209 0.999258 15.7209 0.499258C17.2189 -0.000104886 19.2158 -4.50789e-05 20.7151 0H20.7209C22.2209 4.62344e-05 23.262 1.12085 24.2209 2.5C25.3576 4.13498 25.3875 5.49967 25.2209 7.5C25.0542 9.50033 24.0831 8.30925 24.2209 8.99951C24.329 9.54124 24.9404 9.5241 25.2209 10C25.922 11.1895 24.7209 13.5 24.7209 13.5Z" fill="#6FCF97"/>
<path d="M3.22086 27C2.36712 28.1366 3.53754 29.4642 2.22086 30C1.29865 30.3753 0.220856 29.5 0.220856 29.5C0.054189 28 -0.179144 24.8 0.220856 24C0.620856 23.2 1.72085 22 2.72085 21.5C2.72085 21.5 3.05419 18.6667 4.22086 18.5C5.38752 18.3333 8.01386 18.293 8.22086 18.5C8.72086 19 8.22086 19.5 7.72086 20C7.32086 20.4 6.72086 22 6.72086 22C6.72086 22 7.21765 23.6372 6.72086 24.5C5.93536 25.8643 4.16631 25.7413 3.22086 27Z" fill="#6FCF97"/>
</svg>
