<svg width="132" height="154" viewBox="0 0 132 154" fill="none" xmlns="http://www.w3.org/2000/svg">
<rect y="69" width="132" height="85" rx="20" fill="#F0DF46"/>
<ellipse cx="65.5" cy="100.5" rx="16.5" ry="13.5" fill="black"/>
<path d="M65.5 106L84.1195 130H46.8805L65.5 106Z" fill="black"/>
<path d="M111 69C111 50.7001 106.259 33.1496 97.8198 20.2096C89.3807 7.26962 77.9347 1.38161e-06 66 0C54.0653 -1.38161e-06 42.6193 7.26962 34.1802 20.2096C25.7411 33.1496 21 50.7001 21 69L66 69H111Z" fill="#C4C4C4"/>
<path d="M98 68.5C98 52.9848 94.5759 38.1051 88.481 27.1343C82.386 16.1634 74.1195 10 65.5 10C56.8805 10 48.614 16.1634 42.519 27.1342C36.4241 38.1051 33 52.9848 33 68.5L65.5 68.5H98Z" fill="white"/>
</svg>
