<svg width="148" height="164" viewBox="0 0 148 164" fill="none" xmlns="http://www.w3.org/2000/svg">
<ellipse cx="61.5" cy="104.5" rx="61.5" ry="59.5" fill="#FFE897"/>
<path d="M67.3333 58.2298C64.2965 60.946 59.7035 60.946 56.6667 58.2298L24.7836 29.7129C19.3096 24.8169 22.7728 15.75 30.1169 15.75L93.8831 15.75C101.227 15.75 104.69 24.8169 99.2165 29.7129L67.3333 58.2298Z" fill="#FFE897"/>
<path d="M59.9004 74.5508V65.1758H68.4453V74.6484C72.8073 74.974 77.1367 75.7227 81.4336 76.8945V84.707C75.4115 82.7539 69.3405 81.7773 63.2207 81.7773C54.6921 81.7773 50.4277 84.2188 50.4277 89.1016C50.4277 93.6589 53.1133 95.9375 58.4844 95.9375H65.8086C77.5273 95.9375 83.3867 100.983 83.3867 111.074C83.3867 119.245 78.4062 123.997 68.4453 125.332V135H59.9004V125.674C54.4967 125.511 49.1419 124.714 43.8359 123.281V115.469C49.8581 117.422 55.9453 118.398 62.0977 118.398C70.2682 118.398 74.3535 115.957 74.3535 111.074C74.3535 106.517 71.5052 104.238 65.8086 104.238H58.4844C47.4167 104.238 41.8828 99.1927 41.8828 89.1016C41.8828 80.1172 47.8887 75.2669 59.9004 74.5508Z" fill="black"/>
<ellipse cx="62.5" cy="44.5" rx="29.5" ry="6.5" fill="#AF8C48"/>
</svg>
