<svg width="134" height="200" viewBox="0 0 134 200" fill="none" xmlns="http://www.w3.org/2000/svg">
<path d="M0 0H122V139H0V0Z" fill="#F7F7F7"/>
<path d="M29.2715 53H28.1465L31.7031 44.6211H32.9043L36.4785 53H35.2773L34.1934 50.3633H31.4219L31.7207 49.4844H33.8301L32.2656 45.6875L29.2715 53ZM38.9688 49.4844V47.7266H39.8477V49.4844H41.6055V50.3633H39.8477V52.1211H38.9688V50.3633H37.2109V49.4844H38.9688ZM48.5371 46.8477C50.2871 46.8477 51.1621 47.7129 51.1621 49.4434C51.1621 49.6895 51.1445 49.9531 51.1094 50.2344H46.791C46.791 51.4922 47.5254 52.1211 48.9941 52.1211C49.6934 52.1211 50.3145 52.043 50.8574 51.8867V52.7656C50.3145 52.9219 49.6543 53 48.877 53C46.7637 53 45.707 51.9512 45.707 49.8535C45.707 47.8496 46.6504 46.8477 48.5371 46.8477ZM46.791 49.332H50.1191C50.0957 48.2539 49.5684 47.7148 48.5371 47.7148C47.4434 47.7148 46.8613 48.2539 46.791 49.332ZM52.6211 53V46.8477H53.3535L53.5469 47.6328C54.1758 47.1094 54.8672 46.8477 55.6211 46.8477C57.1562 46.8477 57.9238 47.6113 57.9238 49.1387V53H56.8398V49.1211C56.8398 48.207 56.3848 47.75 55.4746 47.75C54.8535 47.75 54.2637 48.0098 53.7051 48.5293V53H52.6211ZM63.8008 47.8906C63.4297 47.7969 62.9707 47.75 62.4238 47.75C61.1152 47.75 60.4609 48.459 60.4609 49.877C60.4609 51.334 61.0801 52.0625 62.3184 52.0625C62.8809 52.0625 63.375 51.957 63.8008 51.7461V47.8906ZM64.8848 53C64.8848 54.4844 63.9414 55.2266 62.0547 55.2266C61.2969 55.2266 60.625 55.1289 60.0391 54.9336V54.0547C60.6367 54.25 61.3125 54.3477 62.0664 54.3477C63.2227 54.3477 63.8008 53.8984 63.8008 53V52.707C63.3398 52.9023 62.8438 53 62.3125 53C60.3672 53 59.3945 51.9629 59.3945 49.8887C59.3945 47.8613 60.4199 46.8477 62.4707 46.8477C63.3027 46.8477 64.1074 46.9316 64.8848 47.0996V53ZM67.791 44.6211V53H66.707V44.6211H67.791ZM69.5547 52.707V51.7695C70.2773 52.0039 71.0078 52.1211 71.7461 52.1211C72.7266 52.1211 73.2168 51.8281 73.2168 51.2422C73.2168 50.6953 72.875 50.4219 72.1914 50.4219H71.3125C69.9844 50.4219 69.3203 49.8164 69.3203 48.6055C69.3203 47.4336 70.1738 46.8477 71.8809 46.8477C72.6152 46.8477 73.3438 46.9453 74.0664 47.1406V48.0781C73.3438 47.8438 72.6152 47.7266 71.8809 47.7266C70.8574 47.7266 70.3457 48.0195 70.3457 48.6055C70.3457 49.1523 70.668 49.4258 71.3125 49.4258H72.1914C73.5977 49.4258 74.3008 50.0312 74.3008 51.2422C74.3008 52.4141 73.4492 53 71.7461 53C71.0078 53 70.2773 52.9023 69.5547 52.707ZM76.9668 46.8477V53H75.8828V46.8477H76.9668ZM76.9668 44.6211V45.6465H75.8828V44.6211H76.9668ZM78.8477 53V44.6211H79.9316V47.5156C80.4551 47.0703 81.0938 46.8477 81.8477 46.8477C83.3828 46.8477 84.1504 47.6113 84.1504 49.1387V53H83.0664V49.1211C83.0664 48.207 82.6113 47.75 81.7012 47.75C81.0801 47.75 80.4902 48.0098 79.9316 48.5293V53H78.8477ZM29.2715 79H28.1465L31.7031 70.6211H32.9043L36.4785 79H35.2773L34.1934 76.3633H31.4219L31.7207 75.4844H33.8301L32.2656 71.6875L29.2715 79ZM38.9688 75.4844V73.7266H39.8477V75.4844H41.6055V76.3633H39.8477V78.1211H38.9688V76.3633H37.2109V75.4844H38.9688ZM46 79V70.6211H47.084V73.5156C47.6074 73.0703 48.2461 72.8477 49 72.8477C50.5352 72.8477 51.3027 73.6113 51.3027 75.1387V79H50.2188V75.1211C50.2188 74.207 49.7637 73.75 48.8535 73.75C48.2324 73.75 47.6426 74.0098 47.084 74.5293V79H46ZM54.2676 72.8477V79H53.1836V72.8477H54.2676ZM54.2676 70.6211V71.6465H53.1836V70.6211H54.2676ZM56.0898 78.707V77.7695C56.8125 78.0039 57.543 78.1211 58.2812 78.1211C59.2617 78.1211 59.752 77.8281 59.752 77.2422C59.752 76.6953 59.4102 76.4219 58.7266 76.4219H57.8477C56.5195 76.4219 55.8555 75.8164 55.8555 74.6055C55.8555 73.4336 56.709 72.8477 58.416 72.8477C59.1504 72.8477 59.8789 72.9453 60.6016 73.1406V74.0781C59.8789 73.8438 59.1504 73.7266 58.416 73.7266C57.3926 73.7266 56.8809 74.0195 56.8809 74.6055C56.8809 75.1523 57.2031 75.4258 57.8477 75.4258H58.7266C60.1328 75.4258 60.8359 76.0312 60.8359 77.2422C60.8359 78.4141 59.9844 79 58.2812 79C57.543 79 56.8125 78.9023 56.0898 78.707ZM62.3008 71.8516H62.9805L63.2148 72.8477H64.8789V73.7266H63.3848V77.2598C63.3848 77.834 63.6328 78.1211 64.1289 78.1211H64.8789V79H63.8477C62.8164 79 62.3008 78.4473 62.3008 77.3418V71.8516ZM67.0527 75.9004C67.0527 77.3809 67.668 78.1211 68.8984 78.1211C70.1289 78.1211 70.7441 77.3809 70.7441 75.9004C70.7441 74.4512 70.1289 73.7266 68.8984 73.7266C67.668 73.7266 67.0527 74.4512 67.0527 75.9004ZM65.9688 75.9238C65.9688 73.873 66.9453 72.8477 68.8984 72.8477C70.8516 72.8477 71.8281 73.873 71.8281 75.9238C71.8281 77.9707 70.8516 78.9941 68.8984 78.9941C66.9531 78.9941 65.9766 77.9707 65.9688 75.9238ZM73.293 79V72.8477H74.0254L74.2188 73.6328C74.7578 73.1094 75.4062 72.8477 76.1641 72.8477V73.75C75.4297 73.75 74.834 74.0098 74.377 74.5293V79H73.293ZM76.5215 72.8477H77.6992L79.4395 77.6523L81.2383 72.8477H82.3867L79.832 79.1816C79.3789 80.2988 78.6992 80.9961 77.793 81.2734L77.377 80.5059C78.0645 80.2051 78.5645 79.7148 78.877 79.0352L76.5215 72.8477ZM29.2715 105H28.1465L31.7031 96.6211H32.9043L36.4785 105H35.2773L34.1934 102.363H31.4219L31.7207 101.484H33.8301L32.2656 97.6875L29.2715 105ZM38.9688 101.484V99.7266H39.8477V101.484H41.6055V102.363H39.8477V104.121H38.9688V102.363H37.2109V101.484H38.9688ZM45.9414 104.707V103.77C46.6641 104.004 47.3945 104.121 48.1328 104.121C49.1133 104.121 49.6035 103.828 49.6035 103.242C49.6035 102.695 49.2617 102.422 48.5781 102.422H47.6992C46.3711 102.422 45.707 101.816 45.707 100.605C45.707 99.4336 46.5605 98.8477 48.2676 98.8477C49.002 98.8477 49.7305 98.9453 50.4531 99.1406V100.078C49.7305 99.8438 49.002 99.7266 48.2676 99.7266C47.2441 99.7266 46.7324 100.02 46.7324 100.605C46.7324 101.152 47.0547 101.426 47.6992 101.426H48.5781C49.9844 101.426 50.6875 102.031 50.6875 103.242C50.6875 104.414 49.8359 105 48.1328 105C47.3945 105 46.6641 104.902 45.9414 104.707ZM56.7812 104.824C56.2734 104.941 55.7266 105 55.1406 105C52.9531 105 51.8594 103.936 51.8594 101.807C51.8594 99.834 52.9531 98.8477 55.1406 98.8477C55.7266 98.8477 56.2734 98.9062 56.7812 99.0234V99.9023C56.2734 99.7852 55.707 99.7266 55.082 99.7266C53.6562 99.7266 52.9434 100.42 52.9434 101.807C52.9434 103.35 53.6562 104.121 55.082 104.121C55.707 104.121 56.2734 104.062 56.7812 103.945V104.824ZM59.3652 98.8477V105H58.2812V98.8477H59.3652ZM59.3652 96.6211V97.6465H58.2812V96.6211H59.3652ZM63.7832 98.8477C65.5332 98.8477 66.4082 99.7129 66.4082 101.443C66.4082 101.689 66.3906 101.953 66.3555 102.234H62.0371C62.0371 103.492 62.7715 104.121 64.2402 104.121C64.9395 104.121 65.5605 104.043 66.1035 103.887V104.766C65.5605 104.922 64.9004 105 64.123 105C62.0098 105 60.9531 103.951 60.9531 101.854C60.9531 99.8496 61.8965 98.8477 63.7832 98.8477ZM62.0371 101.332H65.3652C65.3418 100.254 64.8145 99.7148 63.7832 99.7148C62.6895 99.7148 62.1074 100.254 62.0371 101.332ZM67.8672 105V98.8477H68.5996L68.793 99.6328C69.4219 99.1094 70.1133 98.8477 70.8672 98.8477C72.4023 98.8477 73.1699 99.6113 73.1699 101.139V105H72.0859V101.121C72.0859 100.207 71.6309 99.75 70.7207 99.75C70.0996 99.75 69.5098 100.01 68.9512 100.529V105H67.8672ZM79.5625 104.824C79.0547 104.941 78.5078 105 77.9219 105C75.7344 105 74.6406 103.936 74.6406 101.807C74.6406 99.834 75.7344 98.8477 77.9219 98.8477C78.5078 98.8477 79.0547 98.9062 79.5625 99.0234V99.9023C79.0547 99.7852 78.4883 99.7266 77.8633 99.7266C76.4375 99.7266 75.7246 100.42 75.7246 101.807C75.7246 103.35 76.4375 104.121 77.8633 104.121C78.4883 104.121 79.0547 104.062 79.5625 103.945V104.824ZM83.4824 98.8477C85.2324 98.8477 86.1074 99.7129 86.1074 101.443C86.1074 101.689 86.0898 101.953 86.0547 102.234H81.7363C81.7363 103.492 82.4707 104.121 83.9395 104.121C84.6387 104.121 85.2598 104.043 85.8027 103.887V104.766C85.2598 104.922 84.5996 105 83.8223 105C81.709 105 80.6523 103.951 80.6523 101.854C80.6523 99.8496 81.5957 98.8477 83.4824 98.8477ZM81.7363 101.332H85.0645C85.041 100.254 84.5137 99.7148 83.4824 99.7148C82.3887 99.7148 81.8066 100.254 81.7363 101.332ZM29.2715 131H28.1465L31.7031 122.621H32.9043L36.4785 131H35.2773L34.1934 128.363H31.4219L31.7207 127.484H33.8301L32.2656 123.688L29.2715 131ZM38.9688 127.484V125.727H39.8477V127.484H41.6055V128.363H39.8477V130.121H38.9688V128.363H37.2109V127.484H38.9688ZM46 131V124.848H46.7324L46.9141 125.621C47.5039 125.105 48.1465 124.848 48.8418 124.848C49.7324 124.848 50.3398 125.129 50.6641 125.691C51.332 125.129 52.0098 124.848 52.6973 124.848C54.1113 124.848 54.8184 125.627 54.8184 127.186V131H53.7344V127.127C53.7344 126.209 53.3477 125.75 52.5742 125.75C51.9961 125.75 51.4551 126.016 50.9512 126.547V131H49.8672V127.145C49.8672 126.215 49.4844 125.75 48.7188 125.75C48.1094 125.75 47.5645 126.016 47.084 126.547V131H46ZM56.2891 129.143C56.2891 127.881 57.1211 127.25 58.7852 127.25C59.3203 127.25 59.8555 127.289 60.3906 127.367V126.787C60.3906 126.08 59.8379 125.727 58.7324 125.727C58.0996 125.727 57.4512 125.824 56.7871 126.02V125.141C57.4512 124.945 58.0996 124.848 58.7324 124.848C60.5605 124.848 61.4746 125.484 61.4746 126.758V131H60.8652L60.4902 130.391C59.877 130.797 59.209 131 58.4863 131C57.0215 131 56.2891 130.381 56.2891 129.143ZM58.7852 128.129C57.8438 128.129 57.373 128.461 57.373 129.125C57.373 129.789 57.7441 130.121 58.4863 130.121C59.2363 130.121 59.8711 129.922 60.3906 129.523V128.246C59.8555 128.168 59.3203 128.129 58.7852 128.129ZM63.2383 123.852H63.918L64.1523 124.848H65.8164V125.727H64.3223V129.26C64.3223 129.834 64.5703 130.121 65.0664 130.121H65.8164V131H64.7852C63.7539 131 63.2383 130.447 63.2383 129.342V123.852ZM67.1992 131V122.621H68.2832V125.516C68.8066 125.07 69.4453 124.848 70.1992 124.848C71.7344 124.848 72.502 125.611 72.502 127.139V131H71.418V127.121C71.418 126.207 70.9629 125.75 70.0527 125.75C69.4316 125.75 68.8418 126.01 68.2832 126.529V131H67.1992Z" fill="black"/>
<path d="M25.1621 24V14.2246H29.332C31.1914 14.2246 32.1211 15.0062 32.1211 16.5693C32.1211 17.8408 31.2119 18.7819 29.3936 19.3926L32.75 24H31.082L27.9717 19.6045V18.7773C29.8402 18.4811 30.7744 17.7633 30.7744 16.624C30.7744 15.7217 30.2549 15.2705 29.2158 15.2705H26.4268V24H25.1621ZM36.9131 16.8223C38.9548 16.8223 39.9756 17.8317 39.9756 19.8506C39.9756 20.1377 39.9551 20.4453 39.9141 20.7734H34.876C34.876 22.2409 35.7327 22.9746 37.4463 22.9746C38.262 22.9746 38.9867 22.8835 39.6201 22.7012V23.7266C38.9867 23.9089 38.2165 24 37.3096 24C34.8441 24 33.6113 22.7764 33.6113 20.3291C33.6113 17.9912 34.7119 16.8223 36.9131 16.8223ZM34.876 19.7207H38.7588C38.7314 18.4629 38.1162 17.834 36.9131 17.834C35.637 17.834 34.958 18.4629 34.876 19.7207ZM42.9424 22.5371C43.4391 22.7832 43.9928 22.9062 44.6035 22.9062C46.0938 22.9062 46.8389 22.0107 46.8389 20.2197C46.8389 18.6566 46.0983 17.875 44.6172 17.875C43.9792 17.875 43.4209 17.9297 42.9424 18.0391V22.5371ZM41.6777 17.1162C42.6302 16.9202 43.6146 16.8223 44.6309 16.8223C46.9323 16.8223 48.083 17.9593 48.083 20.2334C48.083 22.7445 46.9255 24 44.6104 24C44.0361 24 43.4801 23.8861 42.9424 23.6582V26.5977H41.6777V17.1162ZM50.7217 20.3838C50.7217 22.111 51.4395 22.9746 52.875 22.9746C54.3105 22.9746 55.0283 22.111 55.0283 20.3838C55.0283 18.693 54.3105 17.8477 52.875 17.8477C51.4395 17.8477 50.7217 18.693 50.7217 20.3838ZM49.457 20.4111C49.457 18.0186 50.5964 16.8223 52.875 16.8223C55.1536 16.8223 56.293 18.0186 56.293 20.4111C56.293 22.7992 55.1536 23.9932 52.875 23.9932C50.6055 23.9932 49.4661 22.7992 49.457 20.4111ZM58.002 24V16.8223H58.8564L59.082 17.7383C59.7109 17.1276 60.4674 16.8223 61.3516 16.8223V17.875C60.4948 17.875 59.7998 18.1781 59.2666 18.7842V24H58.002ZM62.623 15.6602H63.416L63.6895 16.8223H65.6309V17.8477H63.8877V21.9697C63.8877 22.6396 64.1771 22.9746 64.7559 22.9746H65.6309V24H64.4277C63.2246 24 62.623 23.3551 62.623 22.0654V15.6602ZM78.1816 23.6582C77.3385 23.9316 76.4271 24.0684 75.4473 24.0684C72.0293 24.0684 70.3203 22.3708 70.3203 18.9756C70.3203 15.7627 72.0293 14.1562 75.4473 14.1562C76.4271 14.1562 77.3385 14.293 78.1816 14.5664V15.6602C77.3385 15.3411 76.4727 15.1816 75.584 15.1816C72.918 15.1816 71.585 16.4463 71.585 18.9756C71.585 21.6872 72.918 23.043 75.584 23.043C76.4727 23.043 77.3385 22.8835 78.1816 22.5645V23.6582ZM79.7949 21.833C79.7949 20.361 80.7656 19.625 82.707 19.625C83.3314 19.625 83.9557 19.6706 84.5801 19.7617V19.085C84.5801 18.2601 83.9352 17.8477 82.6455 17.8477C81.9072 17.8477 81.1507 17.9616 80.376 18.1895V17.1641C81.1507 16.9362 81.9072 16.8223 82.6455 16.8223C84.7783 16.8223 85.8447 17.5651 85.8447 19.0508V24H85.1338L84.6963 23.2891C83.9808 23.763 83.2015 24 82.3584 24C80.6494 24 79.7949 23.2777 79.7949 21.833ZM82.707 20.6504C81.6087 20.6504 81.0596 21.0378 81.0596 21.8125C81.0596 22.5872 81.4925 22.9746 82.3584 22.9746C83.2334 22.9746 83.974 22.7422 84.5801 22.2773V20.7871C83.9557 20.696 83.3314 20.6504 82.707 20.6504ZM87.9023 24V16.8223H88.7568L88.9824 17.7383C89.6113 17.1276 90.3678 16.8223 91.252 16.8223V17.875C90.3952 17.875 89.7002 18.1781 89.167 18.7842V24H87.9023ZM97.3428 18.2852C96.8324 18.0391 96.249 17.916 95.5928 17.916C94.1481 17.916 93.4258 18.6839 93.4258 20.2197C93.4258 22.0381 94.1481 22.9473 95.5928 22.9473C96.249 22.9473 96.8324 22.8584 97.3428 22.6807V18.2852ZM98.6074 23.5693C97.737 23.8564 96.6637 24 95.3877 24C93.2503 24 92.1816 22.7559 92.1816 20.2676C92.1816 17.9707 93.3164 16.8223 95.5859 16.8223C96.2057 16.8223 96.7913 16.9362 97.3428 17.1641V14.2246H98.6074V23.5693Z" fill="black"/>
<line x1="18.9599" y1="28.25" x2="100.038" y2="28.25" stroke="black"/>
</svg>
