<svg width="94" height="112" viewBox="0 0 94 112" fill="none" xmlns="http://www.w3.org/2000/svg">
<path d="M32.0229 6.79184C32.5441 8.41419 27.4587 9.24854 24.9278 9.20505C22.3968 9.16156 20.3359 1.75111 20.3477 1.29039C20.3595 0.829664 31.5017 5.16949 32.0229 6.79184Z" fill="#564D80"/>
<path d="M28.8151 14.427L18.7416 23.6271L5.62247 2.50879L28.8151 14.427Z" fill="#6CD4FF"/>
<path d="M20.7848 2.09012C23.3044 1.85901 23.8643 4.40129 23.8643 4.40129C22.3337 4.40129 21.6246 3.01459 19.9449 4.40129C18.2651 5.78799 21.6246 8.09916 21.6246 8.09916C21.6246 8.09916 25.2641 9.71697 30.5833 6.48134C35.9025 3.2457 36.4624 3.47682 36.4624 3.47682C36.4624 3.47682 45.981 -0.914239 51.0202 1.62789C56.0595 4.17002 56.0595 6.48134 58.0192 8.09916C59.9789 9.71697 63.0584 11.3346 64.7381 9.71697C66.4179 8.09935 63.6183 3.24571 65.2981 4.86352C66.9778 6.48134 67.8243 9.27346 68.3776 12.4904C68.9309 15.7073 61.4215 22.0324 59.4189 21.735L31.9831 20.1172C31.9831 20.1172 25.824 19.1928 20.7848 17.3438C15.7455 15.4949 14.9056 9.71697 15.7455 6.48134C16.5854 3.2457 18.2651 2.32124 20.7848 2.09012Z" fill="#61707D"/>
<path d="M29.5649 49.6918C25.8956 51.6689 23.7118 53.9161 23.7118 53.9161C20.7603 56.3734 10.9689 54.2685 8.33345 52.8151C5.69795 51.3618 -2.01259 42.6268 1.51435 40.1848C5.04129 37.7428 23.3618 17.4826 23.3618 17.4826C23.3618 17.4826 29.985 19.9643 35.5537 19.4209C35.5537 19.4209 36.3485 -0.613941 37.6186 1.03338C38.8886 2.68071 53.0504 11.8178 49.9295 19.112L59.542 21.6732C59.542 21.6732 64.2792 42.0863 66.0088 43.7461C67.7384 45.4058 65.8772 48.8143 64.539 50.6229C63.2009 52.4316 51.265 60.8741 50.7768 58.0947C50.2886 55.3153 50.3838 41.9743 45.3008 45.2696C40.2179 48.5648 33.2342 47.7147 29.5649 49.6918Z" fill="#564D80"/>
<path d="M66.7706 94.1655C66.7706 94.1655 66.1369 107.098 69.4943 110.221C72.8516 113.343 52.6846 105.908 49.031 100.027C45.3773 94.1473 46.0693 90.8971 46.545 89.0376C47.0207 87.1781 47.237 85.7878 48.3072 84.6011C49.3774 83.4143 46.8911 84.4149 44.9992 86.0887C43.1074 87.7625 42.7181 91.4641 42.1668 91.7119C41.6154 91.9596 38.5131 85.8316 38.6106 81.9088C38.708 77.986 42.2862 76.2589 41.1404 75.834C39.9945 75.4091 34.8811 80.4123 34.8163 79.0309C34.7515 77.6494 35.357 72.5577 35.6057 71.858C35.8543 71.1582 38.049 63.9409 49.2702 57.1315C60.4914 50.3221 60.9455 48.002 60.9455 48.002L62.5131 45.4162C62.5131 45.4162 62.9782 37.3312 61.9836 40.1295C60.989 42.9278 56.7825 51.8224 57.7566 46.0271C58.7307 40.2319 57.3461 37.278 56.1354 35.4712C54.9248 33.6645 51.0877 17.8755 53.974 19.3987C56.8602 20.9218 63.8128 16.5524 64.4708 15.1484C65.1288 13.7445 74.6645 22.4365 80.9342 30.0789C87.2038 37.7212 90.4681 47.3029 90.4681 47.3029C90.4789 47.5333 93.8297 58.9569 87.5486 69.0695C86.9559 70.0239 79.0605 76.8201 74.9037 80.496C76.6049 78.9855 68.3249 85.6584 66.7706 94.1655Z" fill="#61707D"/>
<path d="M25.0732 23.9471C25.0732 23.9471 33.1254 23.3359 31.3985 24.9925C29.6715 26.6492 28.9699 27.6157 28.8215 28.9653C26.1458 27.8689 24.7745 27.946 22.4962 28.9653C22.4298 26.8431 22.8554 25.7251 25.0732 23.9471Z" fill="#F2F2F2"/>
</svg>
